HIERARCHY
ROOT newVegas:Hips
{
	OFFSET 0.000000 96.479958 0.000000
	CHANNELS 6 Xposition Yposition Zposition Xrotation Yrotation Zrotation
	JOINT newVegas:Pelvis
	{
		OFFSET 0.000000 0.000000 0.000000
		CHANNELS 3 Xrotation Yrotation Zrotation
		JOINT newVegas:LeftUpLeg
		{
			OFFSET 18.735201 -5.666702 -4.541200
			CHANNELS 3 Xrotation Yrotation Zrotation
			JOINT newVegas:LeftLeg
			{
				OFFSET -0.021200 -31.938179 0.493100
				CHANNELS 3 Xrotation Yrotation Zrotation
				JOINT newVegas:LeftFoot
				{
					OFFSET 0.021200 -31.938179 -4.336299
					CHANNELS 3 Xrotation Yrotation Zrotation
					JOINT newVegas:LeftToeBase
					{
						OFFSET 0.943001 -26.722000 15.023500
						CHANNELS 3 Xrotation Yrotation Zrotation
						End Site
						{
							OFFSET 0.000000 30.670183 0.000000
						}
					}
				}
				JOINT newVegas:Left_PantLeg
				{
					OFFSET 0.663870 -9.044666 -1.108900
					CHANNELS 3 Xrotation Yrotation Zrotation
					End Site
					{
						OFFSET 1.415995 20.635357 0.000000
					}
				}
			}
		}
		JOINT newVegas:RightUpLeg
		{
			OFFSET -18.735201 -5.666702 -4.541200
			CHANNELS 3 Xrotation Yrotation Zrotation
			JOINT newVegas:RightLeg
			{
				OFFSET 0.018946 -31.938133 0.493100
				CHANNELS 3 Xrotation Yrotation Zrotation
				JOINT newVegas:RightFoot
				{
					OFFSET -0.018946 -31.938126 -4.336299
					CHANNELS 3 Xrotation Yrotation Zrotation
					JOINT newVegas:RightToeBase
					{
						OFFSET -0.943001 -26.722004 15.023500
						CHANNELS 3 Xrotation Yrotation Zrotation
						End Site
						{
							OFFSET 0.000000 30.670187 0.000000
						}
					}
				}
				JOINT newVegas:Right_PantLeg
				{
					OFFSET -0.661674 -9.044716 -1.108900
					CHANNELS 3 Xrotation Yrotation Zrotation
					End Site
					{
						OFFSET -1.415958 20.635269 0.000000
					}
				}
			}
		}
	}
	JOINT newVegas:Spine
	{
		OFFSET 0.000000 10.199997 -0.299500
		CHANNELS 3 Xrotation Yrotation Zrotation
		JOINT newVegas:Spine1
		{
			OFFSET 0.000000 11.900002 -1.516600
			CHANNELS 3 Xrotation Yrotation Zrotation
			JOINT newVegas:Spine2
			{
				OFFSET 0.000000 13.600006 -2.842500
				CHANNELS 3 Xrotation Yrotation Zrotation
				JOINT newVegas:Neck
				{
					OFFSET 0.000000 9.624100 -2.890100
					CHANNELS 3 Xrotation Yrotation Zrotation
					JOINT newVegas:Head
					{
						OFFSET 0.000000 14.068802 -1.351900
						CHANNELS 3 Xrotation Yrotation Zrotation
						JOINT newVegas:Hair_Back
						{
							OFFSET 0.000000 3.231903 -17.524799
							CHANNELS 3 Xrotation Yrotation Zrotation
							End Site
							{
								OFFSET 0.000000 19.849884 0.000000
							}
						}
						JOINT newVegas:Hair_Front
						{
							OFFSET 0.000000 31.260406 4.573800
							CHANNELS 3 Xrotation Yrotation Zrotation
							JOINT newVegas:Hair_Front1
							{
								OFFSET 0.000000 2.284103 11.993300
								CHANNELS 3 Xrotation Yrotation Zrotation
								JOINT newVegas:Hair_Front2
								{
									OFFSET 0.000000 2.284103 11.993300
									CHANNELS 3 Xrotation Yrotation Zrotation
									End Site
									{
										OFFSET 0.000000 12.208862 0.000000
									}
								}
							}
						}
						JOINT newVegas:Jowel
						{
							OFFSET 0.000000 -7.458206 6.864100
							CHANNELS 3 Xrotation Yrotation Zrotation
							End Site
							{
								OFFSET 0.000000 19.849884 0.000000
							}
						}
					}
				}
				JOINT newVegas:LeftShoulder
				{
					OFFSET 15.263000 10.923401 -0.547700
					CHANNELS 3 Xrotation Yrotation Zrotation
					JOINT newVegas:LeftArm
					{
						OFFSET 25.438599 -2.830597 -13.032500
						CHANNELS 3 Xrotation Yrotation Zrotation
						JOINT newVegas:LeftForeArm
						{
							OFFSET 29.960503 0.000000 0.000000
							CHANNELS 3 Xrotation Yrotation Zrotation
							JOINT newVegas:LeftHand
							{
								OFFSET 27.849251 0.000000 0.000000
								CHANNELS 3 Xrotation Yrotation Zrotation
								JOINT newVegas:LeftHandThumb1
								{
									OFFSET 4.487587 -3.305161 6.305391
									CHANNELS 3 Xrotation Yrotation Zrotation
									JOINT newVegas:LeftHandThumb2
									{
										OFFSET 5.480453 -3.164139 3.164143
										CHANNELS 3 Xrotation Yrotation Zrotation
										JOINT newVegas:LeftHandThumb3
										{
											OFFSET 5.159721 -2.978973 2.978967
											CHANNELS 3 Xrotation Yrotation Zrotation
											End Site
											{
												OFFSET 2.494507 5.926697 1.738678
											}
										}
									}
								}
								JOINT newVegas:LeftHandIndex1
								{
									OFFSET 18.578728 -0.527832 5.208049
									CHANNELS 3 Xrotation Yrotation Zrotation
									JOINT newVegas:LeftHandIndex2
									{
										OFFSET 3.192009 0.000000 0.000000
										CHANNELS 3 Xrotation Yrotation Zrotation
										JOINT newVegas:LeftHandIndex3
										{
											OFFSET 3.835129 0.000000 0.000000
											CHANNELS 3 Xrotation Yrotation Zrotation
											End Site
											{
												OFFSET -0.034599 3.816971 0.371180
											}
										}
									}
								}
								JOINT newVegas:LeftHandMiddle1
								{
									OFFSET 18.476105 0.000000 0.000000
									CHANNELS 3 Xrotation Yrotation Zrotation
									JOINT newVegas:LeftHandMiddle2
									{
										OFFSET 3.324875 0.000000 0.000000
										CHANNELS 3 Xrotation Yrotation Zrotation
										JOINT newVegas:LeftHandMiddle3
										{
											OFFSET 4.596550 0.000000 0.000000
											CHANNELS 3 Xrotation Yrotation Zrotation
											End Site
											{
												OFFSET 0.057701 4.578827 0.399218
											}
										}
									}
								}
								JOINT newVegas:LeftHandRing1
								{
									OFFSET 17.732719 0.121887 -4.201567
									CHANNELS 3 Xrotation Yrotation Zrotation
									JOINT newVegas:LeftHandRing2
									{
										OFFSET 2.733170 0.000000 0.000000
										CHANNELS 3 Xrotation Yrotation Zrotation
										JOINT newVegas:LeftHandRing3
										{
											OFFSET 3.178268 0.000000 0.000000
											CHANNELS 3 Xrotation Yrotation Zrotation
											End Site
											{
												OFFSET 0.119102 3.170624 0.185394
											}
										}
									}
								}
								JOINT newVegas:LeftHandPinky1
								{
									OFFSET 15.989624 -0.606689 -7.535461
									CHANNELS 3 Xrotation Yrotation Zrotation
									JOINT newVegas:LeftHandPinky2
									{
										OFFSET 2.538986 0.000000 0.000000
										CHANNELS 3 Xrotation Yrotation Zrotation
										JOINT newVegas:LeftHandPinky3
										{
											OFFSET 2.593102 0.000000 0.000000
											CHANNELS 3 Xrotation Yrotation Zrotation
											End Site
											{
												OFFSET -0.150902 2.584198 0.152708
											}
										}
									}
								}
							}
							JOINT newVegas:Left_Sleeve
							{
								OFFSET 0.267448 -0.649796 0.577675
								CHANNELS 3 Xrotation Yrotation Zrotation
								End Site
								{
									OFFSET 0.000000 15.991241 0.000000
								}
							}
							JOINT newVegas:Left_CapeC
							{
								OFFSET 15.715958 -8.608795 -6.935905
								CHANNELS 3 Xrotation Yrotation Zrotation
								JOINT newVegas:Left_CapeC1
								{
									OFFSET 0.000000 -8.688499 0.000000
									CHANNELS 3 Xrotation Yrotation Zrotation
									End Site
									{
										OFFSET 0.000000 8.688499 0.000000
									}
								}
							}
						}
						JOINT newVegas:Left_CapeB
						{
							OFFSET 26.118385 -8.608795 -7.079235
							CHANNELS 3 Xrotation Yrotation Zrotation
							JOINT newVegas:Left_CapeB1
							{
								OFFSET 0.000000 -8.688499 0.000000
								CHANNELS 3 Xrotation Yrotation Zrotation
								End Site
								{
									OFFSET 0.000000 8.688499 0.000000
								}
							}
						}
						JOINT newVegas:Left_CapeA
						{
							OFFSET 5.115639 -8.608795 -10.395809
							CHANNELS 3 Xrotation Yrotation Zrotation
							JOINT newVegas:Left_CapeA1
							{
								OFFSET 0.000000 -8.688499 0.000000
								CHANNELS 3 Xrotation Yrotation Zrotation
								End Site
								{
									OFFSET 0.000000 8.688499 0.000000
								}
							}
						}
					}
				}
				JOINT newVegas:RightShoulder
				{
					OFFSET -15.263000 10.923401 -0.547700
					CHANNELS 3 Xrotation Yrotation Zrotation
					JOINT newVegas:RightArm
					{
						OFFSET -25.438599 -2.830597 -13.032500
						CHANNELS 3 Xrotation Yrotation Zrotation
						JOINT newVegas:RightForeArm
						{
							OFFSET -29.960503 0.000000 0.000000
							CHANNELS 3 Xrotation Yrotation Zrotation
							JOINT newVegas:RightHand
							{
								OFFSET -27.849251 0.000000 0.000000
								CHANNELS 3 Xrotation Yrotation Zrotation
								JOINT newVegas:RightHandThumb1
								{
									OFFSET -4.487587 -3.305161 6.305391
									CHANNELS 3 Xrotation Yrotation Zrotation
									JOINT newVegas:RightHandThumb2
									{
										OFFSET -5.480453 -3.164139 3.164143
										CHANNELS 3 Xrotation Yrotation Zrotation
										JOINT newVegas:RightHandThumb3
										{
											OFFSET -5.159721 -2.978973 2.978967
											CHANNELS 3 Xrotation Yrotation Zrotation
											End Site
											{
												OFFSET -2.494507 5.926697 1.738678
											}
										}
									}
								}
								JOINT newVegas:RightHandIndex1
								{
									OFFSET -18.578728 -0.527832 5.208049
									CHANNELS 3 Xrotation Yrotation Zrotation
									JOINT newVegas:RightHandIndex2
									{
										OFFSET -3.192009 0.000000 0.000000
										CHANNELS 3 Xrotation Yrotation Zrotation
										JOINT newVegas:RightHandIndex3
										{
											OFFSET -3.835129 0.000000 0.000000
											CHANNELS 3 Xrotation Yrotation Zrotation
											End Site
											{
												OFFSET 0.034599 3.816971 0.371180
											}
										}
									}
								}
								JOINT newVegas:RightHandMiddle1
								{
									OFFSET -18.476105 0.000000 0.000000
									CHANNELS 3 Xrotation Yrotation Zrotation
									JOINT newVegas:RightHandMiddle2
									{
										OFFSET -3.324875 0.000000 0.000000
										CHANNELS 3 Xrotation Yrotation Zrotation
										JOINT newVegas:RightHandMiddle3
										{
											OFFSET -4.596550 0.000000 0.000000
											CHANNELS 3 Xrotation Yrotation Zrotation
											End Site
											{
												OFFSET -0.057701 4.578827 0.399218
											}
										}
									}
								}
								JOINT newVegas:RightHandRing1
								{
									OFFSET -17.732719 0.121887 -4.201567
									CHANNELS 3 Xrotation Yrotation Zrotation
									JOINT newVegas:RightHandRing2
									{
										OFFSET -2.733170 0.000000 0.000000
										CHANNELS 3 Xrotation Yrotation Zrotation
										JOINT newVegas:RightHandRing3
										{
											OFFSET -3.178268 0.000000 0.000000
											CHANNELS 3 Xrotation Yrotation Zrotation
											End Site
											{
												OFFSET -0.119102 3.170624 0.185394
											}
										}
									}
								}
								JOINT newVegas:RightHandPinky1
								{
									OFFSET -15.989624 -0.606689 -7.535461
									CHANNELS 3 Xrotation Yrotation Zrotation
									JOINT newVegas:RightHandPinky2
									{
										OFFSET -2.538986 0.000000 0.000000
										CHANNELS 3 Xrotation Yrotation Zrotation
										JOINT newVegas:RightHandPinky3
										{
											OFFSET -2.593102 0.000000 0.000000
											CHANNELS 3 Xrotation Yrotation Zrotation
											End Site
											{
												OFFSET 0.150902 2.584198 0.152708
											}
										}
									}
								}
							}
							JOINT newVegas:Right_CapeC
							{
								OFFSET -15.715958 -8.608795 -6.935905
								CHANNELS 3 Xrotation Yrotation Zrotation
								JOINT newVegas:Right_CapeC1
								{
									OFFSET 0.000000 -8.688499 0.000000
									CHANNELS 3 Xrotation Yrotation Zrotation
									End Site
									{
										OFFSET 0.000000 8.688499 0.000000
									}
								}
							}
							JOINT newVegas:Right_Sleeve
							{
								OFFSET -0.267448 -0.649994 0.577675
								CHANNELS 3 Xrotation Yrotation Zrotation
								End Site
								{
									OFFSET 0.000000 15.991302 0.000000
								}
							}
						}
						JOINT newVegas:Right_CapeA
						{
							OFFSET -5.115540 -8.608795 -10.395824
							CHANNELS 3 Xrotation Yrotation Zrotation
							JOINT newVegas:Right_CapeA1
							{
								OFFSET 0.000000 -8.688499 0.000000
								CHANNELS 3 Xrotation Yrotation Zrotation
								End Site
								{
									OFFSET 0.000000 8.688499 0.000000
								}
							}
						}
						JOINT newVegas:Right_CapeB
						{
							OFFSET -26.118187 -8.608795 -7.079266
							CHANNELS 3 Xrotation Yrotation Zrotation
							JOINT newVegas:Right_CapeB1
							{
								OFFSET 0.000000 -8.688499 0.000000
								CHANNELS 3 Xrotation Yrotation Zrotation
								End Site
								{
									OFFSET 0.000000 8.688499 0.000000
								}
							}
						}
					}
				}
				JOINT newVegas:Left_Collar
				{
					OFFSET 18.625099 8.655502 8.828100
					CHANNELS 3 Xrotation Yrotation Zrotation
					JOINT newVegas:Left_Collar1
					{
						OFFSET 14.783401 10.540405 -1.259500
						CHANNELS 3 Xrotation Yrotation Zrotation
						End Site
						{
							OFFSET 0.000000 18.199875 0.000000
						}
					}
				}
				JOINT newVegas:Collar_Back
				{
					OFFSET 0.000000 15.630707 -20.132601
					CHANNELS 3 Xrotation Yrotation Zrotation
					End Site
					{
						OFFSET 0.000000 22.523010 0.000000
					}
				}
				JOINT newVegas:Left_Peck
				{
					OFFSET 17.239599 -5.132599 25.482599
					CHANNELS 3 Xrotation Yrotation Zrotation
					End Site
					{
						OFFSET 0.000000 22.523010 0.000000
					}
				}
				JOINT newVegas:Right_Peck
				{
					OFFSET -17.239599 -5.132202 25.482599
					CHANNELS 3 Xrotation Yrotation Zrotation
					End Site
					{
						OFFSET 0.000000 22.523010 0.000000
					}
				}
				JOINT newVegas:Right_Collar
				{
					OFFSET -18.625099 8.655792 8.828100
					CHANNELS 3 Xrotation Yrotation Zrotation
					JOINT newVegas:Right_Collar1
					{
						OFFSET -14.783401 10.539993 -1.259500
						CHANNELS 3 Xrotation Yrotation Zrotation
						End Site
						{
							OFFSET 0.000000 18.199631 0.000000
						}
					}
				}
			}
		}
		JOINT newVegas:Belly
		{
			OFFSET 0.000000 -6.540398 9.014299
			CHANNELS 3 Xrotation Yrotation Zrotation
			End Site
			{
				OFFSET 0.000000 11.566666 0.000000
			}
		}
	}
	JOINT newVegas:ElvisFacialAnim_Joint
	{
		OFFSET 1.000000 -95.330101 -8.825800
		CHANNELS 3 Xrotation Yrotation Zrotation
		End Site
		{
			OFFSET 0.000000 35.315800 0.000000
		}
	}
}
MOTION
Frames: 4
Frame Time: 0.033333
-11.165769 94.029945 16.999613 0.758478 -116.091632 -3.779565 -0.000000 0.000001 0.000000 -17.289690 1.665126 6.494045 32.071870 -6.719467 -5.798596 -17.176404 19.472209 6.532188 -0.000000 0.000000 -0.000000 0.000000 -0.000001 0.000001 -12.872834 -6.077066 4.392840 23.941797 -5.026255 -3.451337 -8.104034 -9.957452 1.306519 0.000000 -0.000001 0.000000 0.000000 -0.000001 0.000000 9.689471 -6.720659 -8.032803 1.520620 -1.543972 -1.355269 1.548459 -1.531828 -1.335020 0.626554 -4.233072 1.446514 0.626612 -4.233073 1.446573 0.000001 -0.000001 0.000001 0.626507 -4.232944 1.446493 0.626576 -4.233185 1.446538 -0.000001 0.000001 0.000001 0.000001 -0.000001 0.000002 0.298932 -7.034095 -19.372520 -6.279582 -0.913820 -38.116960 0.000007 -3.785741 0.000023 -19.081078 4.055941 -9.079501 18.805270 -23.184493 16.689441 34.969595 40.608931 -20.977473 0.000002 0.000001 -0.000003 1.753618 5.638687 -83.841187 5.578682 5.844742 -87.327199 -0.000000 -0.000000 0.000002 5.847092 8.291652 -99.481787 5.337353 5.828547 -84.954398 0.000001 -0.000000 0.000000 5.220722 8.382454 -99.024848 6.559779 5.808121 -96.969043 -0.000004 0.000001 0.000000 9.464025 10.112811 -101.252719 5.741782 5.850021 -88.928073 0.000002 0.000000 -0.000000 -0.000002 -0.000000 -0.000000 -0.000002 -0.000000 -0.000000 -0.000003 -0.000000 0.000000 0.000004 -0.000002 0.000001 0.000004 -0.000001 0.000000 0.000004 -0.000002 0.000001 0.000002 -0.000001 0.000001 2.302241 1.705168 3.304992 11.823134 11.114823 60.545126 -0.000003 14.034377 -0.000013 -7.247324 -2.759304 -0.891057 -3.164846 7.522589 -12.266179 -0.410203 -33.194023 0.137151 -0.000002 -0.000002 -0.000001 -1.249966 -1.251111 29.860501 0.226916 -1.437417 17.940651 -0.000001 -0.000000 0.000001 -0.837503 -2.717504 37.620282 0.513769 -2.128216 27.140937 0.000000 -0.000001 0.000002 0.586664 -4.605805 39.425399 0.823578 -2.646357 34.568048 -0.000003 0.000001 0.000001 -8.550093 -16.924669 39.917603 0.736257 -2.515066 32.629258 -0.000001 0.000001 0.000001 0.000000 0.000001 0.000000 -0.000000 0.000002 0.000003 0.000000 0.000000 0.000002 -0.000001 0.000003 -0.000001 -0.000001 0.000003 -0.000001 -0.000001 0.000003 -0.000001 -0.000001 0.000003 -0.000000 -0.000000 -0.000003 -0.000000 -0.000000 -0.000003 -0.000000 -0.000000 -0.000003 -0.000000 -0.000000 -0.000003 -0.000000 -0.000000 -0.000003 -0.000000 -0.000000 -0.000003 -0.000000 -0.000000 -0.000003 -0.000000 0.000001 -0.000001 -0.000000 -0.000000 0.000001 0.000000 
-11.080250 94.057343 16.926456 1.138312 -119.976890 -3.514954 -0.000000 0.000001 0.000000 -15.929640 3.116719 6.528656 31.928194 -5.347688 -5.396279 -18.293007 20.746210 6.245458 -0.000000 0.000000 -0.000000 -0.000001 0.000001 -0.000001 -11.188322 -5.723677 5.104887 23.986810 -6.102153 -2.954071 -9.352353 -15.533037 -0.121074 0.000000 0.000002 0.000000 0.000000 -0.000003 0.000000 9.505351 -6.564574 -8.204226 1.495952 -1.501857 -1.383496 1.523239 -1.490065 -1.365437 0.602365 -4.010016 1.484278 0.602373 -4.010012 1.484273 0.000001 -0.000003 -0.000001 0.602444 -4.010032 1.484285 0.602420 -4.009956 1.484269 -0.000001 -0.000000 0.000002 0.000001 -0.000003 -0.000002 0.310694 -6.871771 -19.498245 -5.090859 -0.689952 -38.204660 0.000003 -3.745156 -0.000012 -19.102180 4.118536 -9.047589 18.805273 -23.184493 16.689436 35.121253 40.703099 -21.122954 0.000002 -0.000000 -0.000003 1.837393 5.705550 -84.126545 5.591840 5.845313 -87.456331 -0.000001 0.000000 0.000001 5.823307 8.296397 -99.524373 5.338384 5.828631 -84.964405 0.000003 -0.000000 0.000000 5.281521 8.369152 -98.891857 6.565110 5.807464 -97.021833 0.000002 -0.000002 -0.000000 9.561665 10.181908 -101.258599 5.741215 5.849999 -88.922301 0.000002 -0.000002 -0.000001 -0.000002 -0.000000 0.000001 -0.000002 -0.000000 0.000001 -0.000003 -0.000000 0.000001 -0.000003 0.000000 -0.000000 -0.000002 0.000000 0.000000 -0.000003 0.000000 -0.000000 -0.000004 0.000000 -0.000000 2.253088 1.978672 3.378282 10.933622 10.802281 60.715840 0.000006 14.583024 -0.000001 -6.505968 -2.813143 -1.215178 -3.164847 7.522589 -12.266175 -0.410207 -33.194023 0.137151 0.000000 -0.000003 -0.000001 -1.249968 -1.251117 29.860501 0.226912 -1.437421 17.940650 -0.000004 -0.000000 0.000001 -0.837505 -2.717510 37.620282 0.513767 -2.128217 27.140931 0.000001 0.000000 -0.000000 0.586663 -4.605808 39.425399 0.823581 -2.646356 34.568048 0.000003 -0.000001 -0.000000 -8.550098 -16.924671 39.917603 0.736262 -2.515066 32.629258 0.000001 0.000002 0.000001 0.000003 0.000002 0.000003 0.000002 0.000001 0.000003 0.000003 0.000001 0.000004 -0.000002 0.000000 -0.000003 -0.000002 0.000001 -0.000002 -0.000002 0.000000 -0.000003 -0.000002 0.000001 -0.000000 0.000000 0.000001 0.000002 0.000000 0.000001 0.000002 0.000000 0.000001 0.000002 0.000000 0.000001 0.000002 0.000000 0.000001 0.000002 0.000000 0.000001 0.000002 0.000000 0.000001 0.000002 0.000001 0.000000 -0.000000 -0.000000 0.000001 0.000000 
-10.908798 94.078644 16.758205 1.459427 -123.958330 -3.324153 0.000000 0.000000 -0.000000 -14.560054 4.934565 6.688526 31.682242 -4.137649 -4.965165 -19.287493 21.921941 5.820883 -0.000000 0.000000 -0.000000 -0.000001 -0.000002 0.000000 -9.422807 -5.460032 5.771806 23.516017 -6.778104 -2.682809 -10.414315 -20.581778 -1.224620 0.000000 0.000002 -0.000000 0.000001 -0.000001 -0.000001 9.301002 -6.402429 -8.321776 1.469841 -1.461079 -1.398437 1.496531 -1.449686 -1.382135 0.585228 -3.750413 1.533790 0.585222 -3.750408 1.533797 0.000000 0.000000 0.000001 0.585224 -3.750412 1.533797 0.585223 -3.750393 1.533793 0.000001 0.000001 0.000001 0.000000 0.000000 0.000002 0.320535 -6.698448 -19.647280 -3.660350 -0.672035 -38.534544 -0.000000 -3.707779 -0.000003 -19.136694 3.998772 -8.998687 18.805270 -23.184488 16.689436 35.141675 40.714990 -21.143091 -0.000000 0.000000 0.000001 1.859040 5.723570 -84.235214 5.577746 5.844691 -87.317808 0.000000 -0.000001 0.000001 5.791278 8.301421 -99.507530 5.338742 5.828654 -84.968079 -0.000002 -0.000000 -0.000000 5.278798 8.367556 -98.817852 6.564312 5.807571 -97.013746 0.000003 0.000001 -0.000002 9.478313 10.156516 -101.056904 5.740427 5.849993 -88.914856 -0.000001 -0.000003 -0.000000 -0.000001 0.000001 -0.000000 -0.000001 0.000001 -0.000000 -0.000001 0.000001 0.000000 0.000003 0.000000 -0.000001 0.000003 0.000000 -0.000000 0.000003 0.000000 -0.000001 0.000002 0.000000 -0.000001 2.189114 2.331133 3.467190 9.908965 10.509978 61.006068 -0.000002 15.310926 0.000020 -5.784691 -2.857300 -1.597830 -3.164846 7.522588 -12.266178 -0.410207 -33.194026 0.137159 -0.000001 -0.000003 0.000001 -1.249967 -1.251114 29.860494 0.226916 -1.437419 17.940651 -0.000003 -0.000001 0.000001 -0.837504 -2.717506 37.620276 0.513763 -2.128217 27.140931 -0.000001 -0.000000 0.000001 0.586665 -4.605806 39.425399 0.823579 -2.646355 34.568048 -0.000002 0.000001 -0.000001 -8.550096 -16.924671 39.917603 0.736268 -2.515066 32.629262 -0.000000 0.000003 -0.000003 0.000003 0.000002 0.000003 0.000003 0.000002 0.000002 0.000002 0.000002 0.000002 -0.000001 0.000001 -0.000000 -0.000001 0.000002 -0.000001 -0.000001 0.000001 -0.000000 -0.000001 0.000002 0.000001 0.000001 0.000003 -0.000001 0.000001 0.000003 -0.000001 0.000001 0.000003 -0.000001 0.000001 0.000003 -0.000001 0.000001 0.000003 -0.000001 0.000001 0.000003 -0.000001 0.000001 0.000003 -0.000001 -0.000001 -0.000001 0.000000 0.000000 0.000000 -0.000000 
-10.609276 94.096306 16.439476 1.755326 -128.100662 -3.165558 0.000000 0.000002 -0.000000 -13.105778 6.923738 6.989029 31.300496 -2.868468 -4.575300 -20.123301 23.027870 5.148747 0.000000 0.000001 0.000000 -0.000000 -0.000002 0.000002 -7.675932 -5.450146 6.355901 22.629989 -6.872621 -2.691453 -11.173265 -24.905171 -1.978038 0.000000 0.000001 0.000000 0.000001 0.000001 -0.000001 9.074023 -6.205087 -8.377286 1.444790 -1.414549 -1.406778 1.470729 -1.403983 -1.389128 0.578835 -3.442337 1.597218 0.578834 -3.442341 1.597226 0.000000 0.000001 -0.000000 0.578905 -3.442309 1.597208 0.578846 -3.442371 1.597220 -0.000000 -0.000001 0.000001 0.000000 0.000001 -0.000000 0.329049 -6.511053 -19.822915 -1.996681 -0.824533 -39.078418 0.000001 -3.683489 -0.000000 -19.190012 3.695903 -8.930144 18.805266 -23.184495 16.689444 35.126515 40.703116 -21.130350 0.000002 -0.000005 -0.000005 1.843802 5.713791 -84.265608 5.576206 5.844623 -87.302843 -0.000003 0.000001 0.000000 5.800215 8.301460 -99.586433 5.341460 5.828887 -84.994881 0.000005 -0.000001 -0.000000 5.272798 8.371236 -98.917620 6.562899 5.807730 -96.999908 -0.000005 0.000003 -0.000001 9.479257 10.144985 -101.143873 5.739498 5.849961 -88.905711 -0.000002 -0.000002 -0.000000 -0.000001 0.000000 -0.000000 -0.000001 0.000000 -0.000000 -0.000002 0.000000 0.000000 0.000001 0.000000 0.000000 0.000002 0.000000 0.000001 0.000001 0.000000 0.000000 -0.000000 0.000001 0.000000 2.113932 2.744105 3.567986 8.810567 10.358843 61.449887 -0.000008 16.196462 -0.000002 -5.113468 -2.888881 -2.052123 -3.164848 7.522592 -12.266175 -0.410205 -33.194026 0.137148 -0.000002 -0.000003 0.000001 -1.249967 -1.251112 29.860498 0.226907 -1.437419 17.940650 -0.000003 0.000001 -0.000001 -0.837510 -2.717506 37.620279 0.513765 -2.128219 27.140940 -0.000001 -0.000001 0.000003 0.586660 -4.605807 39.425396 0.823576 -2.646354 34.568055 -0.000003 0.000001 0.000001 -8.550097 -16.924669 39.917603 0.736258 -2.515069 32.629262 0.000005 0.000001 0.000001 0.000003 0.000001 -0.000000 -0.000001 -0.000001 0.000000 0.000003 0.000001 0.000001 -0.000000 0.000001 -0.000002 -0.000000 0.000002 -0.000000 -0.000000 0.000001 -0.000002 -0.000000 0.000002 0.000001 0.000001 0.000000 0.000001 0.000001 0.000000 0.000001 0.000001 0.000000 0.000001 0.000001 0.000000 0.000001 0.000001 0.000000 0.000001 0.000001 0.000000 0.000001 0.000001 0.000000 0.000001 -0.000000 0.000001 0.000000 0.000000 0.000002 -0.000000 
